<mxfile host="app.diagrams.net" modified="2023-12-16T03:01:59.268Z" agent="Mozilla/5.0 (Macintosh; Intel Mac OS X 10_15_7) AppleWebKit/605.1.15 (KHTML, like Gecko) Version/17.1.2 Safari/605.1.15" etag="gMK07KZ-vyETK4Up_p6v" version="22.1.11" type="device">
  <diagram name="Page-1" id="MbIYfYbrqt0S2vGhD3i5">
    <mxGraphModel dx="1990" dy="1212" grid="0" gridSize="10" guides="1" tooltips="1" connect="1" arrows="1" fold="1" page="0" pageScale="1" pageWidth="850" pageHeight="1100" math="0" shadow="0">
      <root>
        <mxCell id="0" />
        <mxCell id="1" parent="0" />
        <mxCell id="XEjjx_XyeDgyVJRFvH9r-1" value="Playwright Tests" style="swimlane;fontStyle=0;childLayout=stackLayout;horizontal=1;startSize=30;horizontalStack=0;resizeParent=1;resizeParentMax=0;resizeLast=0;collapsible=1;marginBottom=0;whiteSpace=wrap;html=1;" vertex="1" parent="1">
          <mxGeometry x="67" y="271" width="140" height="120" as="geometry" />
        </mxCell>
        <mxCell id="XEjjx_XyeDgyVJRFvH9r-2" value="Test 1" style="text;strokeColor=none;fillColor=none;align=left;verticalAlign=middle;spacingLeft=4;spacingRight=4;overflow=hidden;points=[[0,0.5],[1,0.5]];portConstraint=eastwest;rotatable=0;whiteSpace=wrap;html=1;" vertex="1" parent="XEjjx_XyeDgyVJRFvH9r-1">
          <mxGeometry y="30" width="140" height="30" as="geometry" />
        </mxCell>
        <mxCell id="XEjjx_XyeDgyVJRFvH9r-3" value="Test 2" style="text;strokeColor=none;fillColor=none;align=left;verticalAlign=middle;spacingLeft=4;spacingRight=4;overflow=hidden;points=[[0,0.5],[1,0.5]];portConstraint=eastwest;rotatable=0;whiteSpace=wrap;html=1;" vertex="1" parent="XEjjx_XyeDgyVJRFvH9r-1">
          <mxGeometry y="60" width="140" height="30" as="geometry" />
        </mxCell>
        <mxCell id="XEjjx_XyeDgyVJRFvH9r-4" value="Test 3" style="text;strokeColor=none;fillColor=none;align=left;verticalAlign=middle;spacingLeft=4;spacingRight=4;overflow=hidden;points=[[0,0.5],[1,0.5]];portConstraint=eastwest;rotatable=0;whiteSpace=wrap;html=1;" vertex="1" parent="XEjjx_XyeDgyVJRFvH9r-1">
          <mxGeometry y="90" width="140" height="30" as="geometry" />
        </mxCell>
        <mxCell id="XEjjx_XyeDgyVJRFvH9r-12" value="V8 Coverage" style="swimlane;fontStyle=0;childLayout=stackLayout;horizontal=1;startSize=30;horizontalStack=0;resizeParent=1;resizeParentMax=0;resizeLast=0;collapsible=1;marginBottom=0;whiteSpace=wrap;html=1;" vertex="1" parent="1">
          <mxGeometry x="249" y="271" width="140" height="120" as="geometry" />
        </mxCell>
        <mxCell id="XEjjx_XyeDgyVJRFvH9r-13" value="raw 1" style="text;strokeColor=none;fillColor=none;align=left;verticalAlign=middle;spacingLeft=4;spacingRight=4;overflow=hidden;points=[[0,0.5],[1,0.5]];portConstraint=eastwest;rotatable=0;whiteSpace=wrap;html=1;" vertex="1" parent="XEjjx_XyeDgyVJRFvH9r-12">
          <mxGeometry y="30" width="140" height="30" as="geometry" />
        </mxCell>
        <mxCell id="XEjjx_XyeDgyVJRFvH9r-14" value="raw 2" style="text;strokeColor=none;fillColor=none;align=left;verticalAlign=middle;spacingLeft=4;spacingRight=4;overflow=hidden;points=[[0,0.5],[1,0.5]];portConstraint=eastwest;rotatable=0;whiteSpace=wrap;html=1;" vertex="1" parent="XEjjx_XyeDgyVJRFvH9r-12">
          <mxGeometry y="60" width="140" height="30" as="geometry" />
        </mxCell>
        <mxCell id="XEjjx_XyeDgyVJRFvH9r-15" value="raw 2" style="text;strokeColor=none;fillColor=none;align=left;verticalAlign=middle;spacingLeft=4;spacingRight=4;overflow=hidden;points=[[0,0.5],[1,0.5]];portConstraint=eastwest;rotatable=0;whiteSpace=wrap;html=1;" vertex="1" parent="XEjjx_XyeDgyVJRFvH9r-12">
          <mxGeometry y="90" width="140" height="30" as="geometry" />
        </mxCell>
        <mxCell id="XEjjx_XyeDgyVJRFvH9r-16" style="edgeStyle=orthogonalEdgeStyle;rounded=0;orthogonalLoop=1;jettySize=auto;html=1;" edge="1" parent="1" source="XEjjx_XyeDgyVJRFvH9r-2" target="XEjjx_XyeDgyVJRFvH9r-13">
          <mxGeometry relative="1" as="geometry" />
        </mxCell>
        <mxCell id="XEjjx_XyeDgyVJRFvH9r-17" style="edgeStyle=orthogonalEdgeStyle;rounded=0;orthogonalLoop=1;jettySize=auto;html=1;" edge="1" parent="1" source="XEjjx_XyeDgyVJRFvH9r-3" target="XEjjx_XyeDgyVJRFvH9r-14">
          <mxGeometry relative="1" as="geometry" />
        </mxCell>
        <mxCell id="XEjjx_XyeDgyVJRFvH9r-19" style="edgeStyle=orthogonalEdgeStyle;rounded=0;orthogonalLoop=1;jettySize=auto;html=1;" edge="1" parent="1" source="XEjjx_XyeDgyVJRFvH9r-4" target="XEjjx_XyeDgyVJRFvH9r-15">
          <mxGeometry relative="1" as="geometry" />
        </mxCell>
        <mxCell id="XEjjx_XyeDgyVJRFvH9r-29" style="edgeStyle=orthogonalEdgeStyle;rounded=0;orthogonalLoop=1;jettySize=auto;html=1;" edge="1" parent="1" source="XEjjx_XyeDgyVJRFvH9r-26" target="XEjjx_XyeDgyVJRFvH9r-1">
          <mxGeometry relative="1" as="geometry" />
        </mxCell>
        <mxCell id="XEjjx_XyeDgyVJRFvH9r-30" style="edgeStyle=orthogonalEdgeStyle;rounded=0;orthogonalLoop=1;jettySize=auto;html=1;exitX=0.5;exitY=1;exitDx=0;exitDy=0;entryX=0;entryY=0.5;entryDx=0;entryDy=0;" edge="1" parent="1" source="XEjjx_XyeDgyVJRFvH9r-26" target="XEjjx_XyeDgyVJRFvH9r-27">
          <mxGeometry relative="1" as="geometry" />
        </mxCell>
        <mxCell id="XEjjx_XyeDgyVJRFvH9r-26" value="Playwright" style="ellipse;whiteSpace=wrap;html=1;aspect=fixed;" vertex="1" parent="1">
          <mxGeometry x="-98" y="291" width="80" height="80" as="geometry" />
        </mxCell>
        <mxCell id="XEjjx_XyeDgyVJRFvH9r-33" style="edgeStyle=orthogonalEdgeStyle;rounded=0;orthogonalLoop=1;jettySize=auto;html=1;" edge="1" parent="1" source="XEjjx_XyeDgyVJRFvH9r-27" target="XEjjx_XyeDgyVJRFvH9r-32">
          <mxGeometry relative="1" as="geometry" />
        </mxCell>
        <mxCell id="XEjjx_XyeDgyVJRFvH9r-37" style="edgeStyle=orthogonalEdgeStyle;rounded=0;orthogonalLoop=1;jettySize=auto;html=1;" edge="1" parent="1" source="XEjjx_XyeDgyVJRFvH9r-27" target="XEjjx_XyeDgyVJRFvH9r-36">
          <mxGeometry relative="1" as="geometry" />
        </mxCell>
        <mxCell id="XEjjx_XyeDgyVJRFvH9r-77" style="edgeStyle=orthogonalEdgeStyle;rounded=0;orthogonalLoop=1;jettySize=auto;html=1;" edge="1" parent="1" source="XEjjx_XyeDgyVJRFvH9r-27" target="XEjjx_XyeDgyVJRFvH9r-1">
          <mxGeometry relative="1" as="geometry" />
        </mxCell>
        <mxCell id="XEjjx_XyeDgyVJRFvH9r-27" value="Vite" style="ellipse;whiteSpace=wrap;html=1;" vertex="1" parent="1">
          <mxGeometry x="97" y="469" width="80" height="80" as="geometry" />
        </mxCell>
        <mxCell id="XEjjx_XyeDgyVJRFvH9r-57" style="edgeStyle=orthogonalEdgeStyle;rounded=0;orthogonalLoop=1;jettySize=auto;html=1;" edge="1" parent="1" source="XEjjx_XyeDgyVJRFvH9r-32">
          <mxGeometry relative="1" as="geometry">
            <mxPoint x="434.16666666666674" y="457.5" as="targetPoint" />
          </mxGeometry>
        </mxCell>
        <mxCell id="XEjjx_XyeDgyVJRFvH9r-32" value="Vite V8 Raw Coverage" style="whiteSpace=wrap;html=1;" vertex="1" parent="1">
          <mxGeometry x="249" y="435" width="144" height="45" as="geometry" />
        </mxCell>
        <mxCell id="XEjjx_XyeDgyVJRFvH9r-35" style="edgeStyle=orthogonalEdgeStyle;rounded=0;orthogonalLoop=1;jettySize=auto;html=1;" edge="1" parent="1" source="XEjjx_XyeDgyVJRFvH9r-34" target="XEjjx_XyeDgyVJRFvH9r-26">
          <mxGeometry relative="1" as="geometry" />
        </mxCell>
        <mxCell id="XEjjx_XyeDgyVJRFvH9r-34" value="SPC" style="ellipse;whiteSpace=wrap;html=1;" vertex="1" parent="1">
          <mxGeometry x="-241" y="291" width="80" height="80" as="geometry" />
        </mxCell>
        <mxCell id="XEjjx_XyeDgyVJRFvH9r-58" style="edgeStyle=orthogonalEdgeStyle;rounded=0;orthogonalLoop=1;jettySize=auto;html=1;" edge="1" parent="1" source="XEjjx_XyeDgyVJRFvH9r-36" target="XEjjx_XyeDgyVJRFvH9r-45">
          <mxGeometry relative="1" as="geometry" />
        </mxCell>
        <mxCell id="XEjjx_XyeDgyVJRFvH9r-36" value="Source Map" style="whiteSpace=wrap;html=1;" vertex="1" parent="1">
          <mxGeometry x="249" y="524" width="99" height="48" as="geometry" />
        </mxCell>
        <mxCell id="XEjjx_XyeDgyVJRFvH9r-41" value="V8 Coverage" style="swimlane;fontStyle=0;childLayout=stackLayout;horizontal=1;startSize=30;horizontalStack=0;resizeParent=1;resizeParentMax=0;resizeLast=0;collapsible=1;marginBottom=0;whiteSpace=wrap;html=1;" vertex="1" parent="1">
          <mxGeometry x="596" y="271" width="140" height="120" as="geometry" />
        </mxCell>
        <mxCell id="XEjjx_XyeDgyVJRFvH9r-42" value="+page.svelte" style="text;strokeColor=none;fillColor=none;align=left;verticalAlign=middle;spacingLeft=4;spacingRight=4;overflow=hidden;points=[[0,0.5],[1,0.5]];portConstraint=eastwest;rotatable=0;whiteSpace=wrap;html=1;" vertex="1" parent="XEjjx_XyeDgyVJRFvH9r-41">
          <mxGeometry y="30" width="140" height="30" as="geometry" />
        </mxCell>
        <mxCell id="XEjjx_XyeDgyVJRFvH9r-43" value="+page.svelte" style="text;strokeColor=none;fillColor=none;align=left;verticalAlign=middle;spacingLeft=4;spacingRight=4;overflow=hidden;points=[[0,0.5],[1,0.5]];portConstraint=eastwest;rotatable=0;whiteSpace=wrap;html=1;" vertex="1" parent="XEjjx_XyeDgyVJRFvH9r-41">
          <mxGeometry y="60" width="140" height="30" as="geometry" />
        </mxCell>
        <mxCell id="XEjjx_XyeDgyVJRFvH9r-61" style="edgeStyle=orthogonalEdgeStyle;rounded=0;orthogonalLoop=1;jettySize=auto;html=1;startArrow=classic;startFill=1;endArrow=none;endFill=0;" edge="1" parent="XEjjx_XyeDgyVJRFvH9r-41" source="XEjjx_XyeDgyVJRFvH9r-44">
          <mxGeometry relative="1" as="geometry">
            <mxPoint x="-33.5" y="104.99999999999989" as="targetPoint" />
          </mxGeometry>
        </mxCell>
        <mxCell id="XEjjx_XyeDgyVJRFvH9r-44" value="+page.ts" style="text;strokeColor=none;fillColor=none;align=left;verticalAlign=middle;spacingLeft=4;spacingRight=4;overflow=hidden;points=[[0,0.5],[1,0.5]];portConstraint=eastwest;rotatable=0;whiteSpace=wrap;html=1;" vertex="1" parent="XEjjx_XyeDgyVJRFvH9r-41">
          <mxGeometry y="90" width="140" height="30" as="geometry" />
        </mxCell>
        <mxCell id="XEjjx_XyeDgyVJRFvH9r-45" value="Resolve" style="shape=step;perimeter=stepPerimeter;whiteSpace=wrap;html=1;fixedSize=1;" vertex="1" parent="1">
          <mxGeometry x="435" y="271" width="120" height="213" as="geometry" />
        </mxCell>
        <mxCell id="XEjjx_XyeDgyVJRFvH9r-54" style="edgeStyle=orthogonalEdgeStyle;rounded=0;orthogonalLoop=1;jettySize=auto;html=1;entryX=0.083;entryY=0.214;entryDx=0;entryDy=0;entryPerimeter=0;" edge="1" parent="1" source="XEjjx_XyeDgyVJRFvH9r-13" target="XEjjx_XyeDgyVJRFvH9r-45">
          <mxGeometry relative="1" as="geometry" />
        </mxCell>
        <mxCell id="XEjjx_XyeDgyVJRFvH9r-55" style="edgeStyle=orthogonalEdgeStyle;rounded=0;orthogonalLoop=1;jettySize=auto;html=1;entryX=0.118;entryY=0.354;entryDx=0;entryDy=0;entryPerimeter=0;" edge="1" parent="1" source="XEjjx_XyeDgyVJRFvH9r-14" target="XEjjx_XyeDgyVJRFvH9r-45">
          <mxGeometry relative="1" as="geometry" />
        </mxCell>
        <mxCell id="XEjjx_XyeDgyVJRFvH9r-56" style="edgeStyle=orthogonalEdgeStyle;rounded=0;orthogonalLoop=1;jettySize=auto;html=1;entryX=0.111;entryY=0.493;entryDx=0;entryDy=0;entryPerimeter=0;" edge="1" parent="1" source="XEjjx_XyeDgyVJRFvH9r-15" target="XEjjx_XyeDgyVJRFvH9r-45">
          <mxGeometry relative="1" as="geometry" />
        </mxCell>
        <mxCell id="XEjjx_XyeDgyVJRFvH9r-59" style="edgeStyle=orthogonalEdgeStyle;rounded=0;orthogonalLoop=1;jettySize=auto;html=1;entryX=0.972;entryY=0.211;entryDx=0;entryDy=0;entryPerimeter=0;startArrow=classic;startFill=1;endArrow=none;endFill=0;" edge="1" parent="1" source="XEjjx_XyeDgyVJRFvH9r-42" target="XEjjx_XyeDgyVJRFvH9r-45">
          <mxGeometry relative="1" as="geometry" />
        </mxCell>
        <mxCell id="XEjjx_XyeDgyVJRFvH9r-60" style="edgeStyle=orthogonalEdgeStyle;rounded=0;orthogonalLoop=1;jettySize=auto;html=1;entryX=1;entryY=0.354;entryDx=0;entryDy=0;entryPerimeter=0;startArrow=classic;startFill=1;endArrow=none;endFill=0;" edge="1" parent="1" source="XEjjx_XyeDgyVJRFvH9r-43" target="XEjjx_XyeDgyVJRFvH9r-45">
          <mxGeometry relative="1" as="geometry" />
        </mxCell>
        <mxCell id="XEjjx_XyeDgyVJRFvH9r-72" value="" style="edgeStyle=orthogonalEdgeStyle;rounded=0;orthogonalLoop=1;jettySize=auto;html=1;" edge="1" parent="1" source="XEjjx_XyeDgyVJRFvH9r-62" target="XEjjx_XyeDgyVJRFvH9r-71">
          <mxGeometry relative="1" as="geometry" />
        </mxCell>
        <mxCell id="XEjjx_XyeDgyVJRFvH9r-62" value="Marge" style="ellipse;whiteSpace=wrap;html=1;" vertex="1" parent="1">
          <mxGeometry x="799" y="306" width="80" height="80" as="geometry" />
        </mxCell>
        <mxCell id="XEjjx_XyeDgyVJRFvH9r-63" style="edgeStyle=orthogonalEdgeStyle;rounded=0;orthogonalLoop=1;jettySize=auto;html=1;" edge="1" parent="1" source="XEjjx_XyeDgyVJRFvH9r-42" target="XEjjx_XyeDgyVJRFvH9r-62">
          <mxGeometry relative="1" as="geometry" />
        </mxCell>
        <mxCell id="XEjjx_XyeDgyVJRFvH9r-64" style="edgeStyle=orthogonalEdgeStyle;rounded=0;orthogonalLoop=1;jettySize=auto;html=1;" edge="1" parent="1" source="XEjjx_XyeDgyVJRFvH9r-43" target="XEjjx_XyeDgyVJRFvH9r-62">
          <mxGeometry relative="1" as="geometry" />
        </mxCell>
        <mxCell id="XEjjx_XyeDgyVJRFvH9r-65" style="edgeStyle=orthogonalEdgeStyle;rounded=0;orthogonalLoop=1;jettySize=auto;html=1;" edge="1" parent="1" source="XEjjx_XyeDgyVJRFvH9r-44" target="XEjjx_XyeDgyVJRFvH9r-62">
          <mxGeometry relative="1" as="geometry" />
        </mxCell>
        <mxCell id="XEjjx_XyeDgyVJRFvH9r-74" style="edgeStyle=orthogonalEdgeStyle;rounded=0;orthogonalLoop=1;jettySize=auto;html=1;" edge="1" parent="1" source="XEjjx_XyeDgyVJRFvH9r-71" target="XEjjx_XyeDgyVJRFvH9r-73">
          <mxGeometry relative="1" as="geometry" />
        </mxCell>
        <mxCell id="XEjjx_XyeDgyVJRFvH9r-71" value="V8 Final" style="whiteSpace=wrap;html=1;" vertex="1" parent="1">
          <mxGeometry x="928" y="311" width="75" height="70" as="geometry" />
        </mxCell>
        <mxCell id="XEjjx_XyeDgyVJRFvH9r-76" style="edgeStyle=orthogonalEdgeStyle;rounded=0;orthogonalLoop=1;jettySize=auto;html=1;" edge="1" parent="1" source="XEjjx_XyeDgyVJRFvH9r-73" target="XEjjx_XyeDgyVJRFvH9r-75">
          <mxGeometry relative="1" as="geometry" />
        </mxCell>
        <mxCell id="XEjjx_XyeDgyVJRFvH9r-73" value="V8 → Istanbul" style="ellipse;whiteSpace=wrap;html=1;" vertex="1" parent="1">
          <mxGeometry x="1052" y="300" width="92" height="92" as="geometry" />
        </mxCell>
        <mxCell id="XEjjx_XyeDgyVJRFvH9r-75" value="Coverage Final" style="whiteSpace=wrap;html=1;" vertex="1" parent="1">
          <mxGeometry x="1190" y="302.5" width="119" height="87" as="geometry" />
        </mxCell>
      </root>
    </mxGraphModel>
  </diagram>
</mxfile>
